<?xml version="1.0" encoding="UTF-8" standalone="no"?><!DOCTYPE svg PUBLIC "-//W3C//DTD SVG 1.1//EN" "http://www.w3.org/Graphics/SVG/1.1/DTD/svg11.dtd"><svg width="100%" height="100%" viewBox="0 0 708 708" version="1.1" xmlns="http://www.w3.org/2000/svg" xmlns:xlink="http://www.w3.org/1999/xlink" xml:space="preserve" xmlns:serif="http://www.serif.com/" style="fill-rule:evenodd;clip-rule:evenodd;stroke-linejoin:round;stroke-miterlimit:2;"><g id="icon"></g><g id="purple"></g><g id="dark"></g><g id="light"></g><g><circle cx="354" cy="354" r="354" style="fill:#25347b;"/><g id="icon1" serif:id="icon"><path d="M468.533,328.627c0.451,-0.267 0.958,-0.421 1.479,-0.449l-2.791,-36.147l-66.239,39.124l31.634,18.679l35.917,-21.207Zm-225.061,95.543l-3.361,43.522l112.95,-66.699l-35.818,-20.38l-73.771,43.557Zm-0.301,-132.135l-2.786,36.148c0.51,0.044 1.024,0.171 1.487,0.448l37.679,22.254l0.005,-0l190.73,116.811l-3.365,-43.522l-223.75,-132.139Zm264.794,57.808l31.634,-18.679l-66.248,-39.129l-2.786,36.148c0.524,0.03 1.034,0.184 1.491,0.448l35.909,21.212Z" style="fill:#fff;fill-rule:nonzero;"/><path d="M357.875,306.721l35.986,20.283l73.668,-43.508c0.612,-0.782 1.509,-1.273 2.483,-1.359c1.176,-0.091 2.322,0.426 3.052,1.377l75.37,44.502c0.06,0.035 0.108,0.088 0.159,0.119c0.111,0.079 0.214,0.145 0.317,0.233c0.173,0.15 0.334,0.315 0.48,0.492c0.086,0.101 0.155,0.215 0.228,0.325c0.038,0.062 0.085,0.102 0.163,0.269c0.06,0.118 0.107,0.241 0.154,0.36c0.088,0.208 0.152,0.427 0.188,0.651c0.029,0.113 0.049,0.227 0.06,0.343c0.013,0.119 0.009,0.233 0.009,0.352c0,0.11 0.004,0.224 -0.009,0.343c-0.011,0.115 -0.031,0.23 -0.06,0.343c-0.018,0.115 -0.044,0.23 -0.077,0.343c-0.03,0.101 -0.073,0.206 -0.111,0.307c-0.047,0.119 -0.094,0.242 -0.202,0.462c-0.021,0.044 -0.06,0.07 -0.085,0.101c-0.117,0.198 -0.255,0.383 -0.412,0.55c-0.051,0.061 -0.09,0.11 -0.15,0.162c-0.204,0.202 -0.432,0.378 -0.677,0.524l-76.357,45.104c-1.088,0.643 -2.431,0.643 -3.519,0l-228.32,-139.095l-153.84,90.834l153.72,86.678l69.956,-41.31l-32.225,-18.335l-35.96,21.228c-1.086,0.65 -2.434,0.65 -3.52,0c-3.494,-1.983 -70.779,-40.043 -74.101,-42.07c-2.204,-1.341 -4.776,-2.515 -4.377,-5.589c0.476,-3.702 5.183,-5.549 7.978,-7.198c8.634,-5.1 17.268,-10.192 25.902,-15.297l43.599,-25.745c0.612,-0.781 1.509,-1.272 2.483,-1.358c1.177,-0.091 2.324,0.426 3.056,1.376l227.441,134.307l153.746,-86.661l-153.785,-90.829l-112.411,66.386Zm266.208,24.443l-150.432,92.962l-3.361,43.566l153.793,-90.816l0,-45.712Z" style="fill:#fff;fill-rule:nonzero;"/><path d="M170.798,331.164l31.642,18.679l35.913,-21.212c0.455,-0.262 0.962,-0.415 1.483,-0.448l-2.791,-36.148l-66.247,39.129Zm-86.881,0l-0,45.712l154.993,90.816l-3.965,-43.566l-151.028,-92.962Z" style="fill:#fff;fill-rule:nonzero;"/></g></g></svg>